<?xml version="1.0" encoding="UTF-8" standalone="no"?>
<svg
   width="158.04065mm"
   height="158.04065mm"
   viewBox="0 0 158.04065 158.04065"
   version="1.1"
   id="svg8"
   xmlns="http://www.w3.org/2000/svg"
   xmlns:svg="http://www.w3.org/2000/svg"
   xmlns:rdf="http://www.w3.org/1999/02/22-rdf-syntax-ns#"
   xmlns:cc="http://creativecommons.org/ns#"
   xmlns:dc="http://purl.org/dc/elements/1.1/">
  <defs
     id="defs2" />
  <metadata
     id="metadata5">
    <rdf:RDF>
      <cc:Work
         rdf:about="">
        <dc:format>image/svg+xml</dc:format>
        <dc:type
           rdf:resource="http://purl.org/dc/dcmitype/StillImage" />
      </cc:Work>
    </rdf:RDF>
  </metadata>
  <g
     id="layer7"
     style="display:inline">
    <circle
       style="fill:#000000;stroke-width:0.263831"
       id="path234"
       cx="78.300003"
       cy="78.300003"
       r="68" />
  </g>
  <g
     id="layer1"
     style="display:inline"
     transform="translate(-23.136744,-59.930525)">
    <path
       id="rect3033"
       style="display:inline;fill:#800080;fill-opacity:1;stroke-width:0.378622"
       d="M 78.400899,8.9596598 A 69.441953,69.441952 0 0 0 8.9596598,78.400899 69.441953,69.441952 0 0 0 78.400899,147.84369 69.441953,69.441952 0 0 0 147.84369,78.400899 69.441953,69.441952 0 0 0 78.400899,8.9596598 Z m 0.0041,3.0287562 a 66.548546,66.548543 0 0 1 0.61495,0.02429 v 36.204509 c 3.3e-4,5e-5 8.03e-4,-8e-5 0.001,0 0.22442,-0.0473 0.475186,-0.07997 0.716236,-0.119373 0.562799,-1.823398 0.860175,-3.543325 1.645894,-6.485392 1.877028,-7.028821 10.432053,-11.556098 17.159676,-12.335681 7.554315,-0.875413 2.973015,1.373377 0.03152,5.396053 -0.958669,1.311209 -7.271623,11.125324 -12.566158,13.328902 -0.073,0.0304 -0.136666,0.0588 -0.208256,0.0894 1.328258,0.24074 2.471546,0.668072 3.153296,1.328601 2.528756,-0.08298 20.141743,-9.251082 38.893753,-15.360302 a 66.548546,66.548543 0 0 1 17.10696,44.477388 66.548546,66.548543 0 0 1 -0.0124,0.948263 c -2.72359,2.42523 -6.60284,4.40614 -12.7248,5.627047 3.45332,4.645515 8.26349,10.295014 2.36006,16.169039 -15.94056,15.86121 -33.25944,6.93119 -38.113437,18.93321 -3.437464,7.34545 -3.61464,15.60057 -2.365231,22.99291 a 66.548546,66.548543 0 0 1 -8.864575,1.526 c -3.251219,-10.14164 -4.047385,-16.92312 -6.093168,-27.1973 -0.0404,0.13388 -0.08017,0.26481 -0.119373,0.39739 -3.9e-4,-9.8e-4 -7.83e-4,-0.003 -10e-4,-0.004 v 27.1477 a 66.548546,66.548543 0 0 1 -0.61495,0.008 66.548546,66.548543 0 0 1 -5.629113,-0.25322 c 3.277756,-10.19613 4.073829,-16.98919 6.126241,-27.29652 0.0398,0.13246 0.07896,0.2625 0.117822,0.39377 V 90.820813 H 75.129781 L 67.616545,73.207418 V 100.34891 H 57.761332 V 59.81392 h 12.141895 l 9.116756,20.329509 V 48.217212 c -0.22475,-0.0473 -0.475442,-0.08121 -0.716752,-0.120406 -0.56273,-1.823158 -0.8603,-3.542632 -1.645895,-6.484359 -1.877103,-7.028821 -10.4321,-11.556098 -17.159676,-12.335681 -7.554334,-0.875413 -2.973368,1.373377 -0.03204,5.396053 0.958726,1.311209 7.272127,11.125324 12.566675,13.328902 0.07346,0.0305 0.137115,0.0588 0.208773,0.0894 -1.328937,0.24073 -2.473585,0.667982 -3.155363,1.328601 C 66.514403,49.335486 48.348588,39.857151 29.246794,33.753495 A 66.548546,66.548543 0 0 1 78.405033,11.988416 Z m 0.61495,68.155013 v 10.677384 h 3.323828 L 89.857564,73.207418 V 100.34891 H 100.25693 V 59.81392 H 88.115552 l -9.092469,20.33571 z m -67.15349,-1.855184 c 2.757744,2.971648 6.852942,5.407299 13.956254,6.823873 -3.453224,4.645515 -8.260852,10.295014 -2.357479,16.169042 15.940525,15.86121 33.259524,6.93119 38.113436,18.93321 3.475435,7.42676 3.617906,15.78327 2.322339,23.23786 a 66.548546,66.548543 0 0 1 -52.044368,-64.915422 66.548546,66.548543 0 0 1 0.0098,-0.248563 z"
       transform="translate(23.136744,59.930525)" />
  </g>
</svg>
